<svg xmlns="http://www.w3.org/2000/svg" viewBox="0 0 256 256" width="256" height="256" fill="none" role="img" aria-label="NetOps Twin Logo">
  <circle cx="128" cy="128" r="104" stroke="#38BDF8" stroke-width="12" />
  <path d="M128 56L184 88L184 168L128 200L72 168L72 88L128 56Z" stroke="#64748B" stroke-width="10" stroke-linejoin="round" />
  <path d="M128 80L160 98V146L128 164L96 146V98L128 80Z" stroke="#38BDF8" stroke-width="10" stroke-linejoin="round" />
  <path d="M128 80V164M96 98L128 116L160 98M96 146L128 128L160 146" stroke="#38BDF8" stroke-width="10" stroke-linecap="round" stroke-linejoin="round" />
  <path d="M128 56L128 80M184 88L160 98M184 168L160 146M72 168L96 146M72 88L96 98" stroke="#64748B" stroke-width="10" stroke-linecap="round" />
  <circle cx="128" cy="56" r="10" fill="#22C55E" />
  <circle cx="184" cy="88" r="10" fill="#22C55E" />
  <circle cx="184" cy="168" r="10" fill="#22C55E" />
  <circle cx="128" cy="200" r="10" fill="#22C55E" />
  <circle cx="72" cy="168" r="10" fill="#22C55E" />
  <circle cx="72" cy="88" r="10" fill="#22C55E" />
  <circle cx="128" cy="128" r="10" fill="#38BDF8" />
</svg>
